<svg xmlns="http://www.w3.org/2000/svg" xmlns:xlink="http://www.w3.org/1999/xlink" version="1.1" id="Layer_1" x="0px" y="0px" width="40px" height="40px" viewBox="0 0 40 40" style="enable-background:new 0 0 40 40;" xml:space="preserve"><style type="text/css">.st0{fill:none;stroke:#000000;stroke-width:1.8966;stroke-miterlimit:10;}</style><g><circle class="st0" cx="20" cy="20" r="3.9"/><path class="st0" d="M13.1 14.3c1.6-2.1 4-3.2 6.9-3.2c2.8 0 5.1 1 6.7 3"/><path class="st0" d="M26.7 25.9c-1.6 2.1-3.9 3-6.7 3c-2.8 0-5.2-1.1-6.9-3.2"/><circle class="st0" cx="20" cy="20" r="13.9"/><circle class="st0" cx="20" cy="20" r="19.1"/><line class="st0" x1="33.5" y1="6.5" x2="25.6" y2="14.3"/><line class="st0" x1="6.1" y1="6.5" x2="14.4" y2="14.3"/><line class="st0" x1="27.3" y1="20" x2="23.9" y2="20"/><line class="st0" x1="15.9" y1="20" x2="12.5" y2="20"/><line class="st0" x1="33.5" y1="33.5" x2="25.6" y2="25.9"/><line class="st0" x1="6.1" y1="33.5" x2="14.4" y2="25.6"/></g></svg>