<svg xmlns="http://www.w3.org/2000/svg" xmlns:xlink="http://www.w3.org/1999/xlink" version="1.1" id="Layer_1" x="0px" y="0px" width="50px" height="50px" viewBox="0 0 50 50" style="enable-background:new 0 0 50 50;" xml:space="preserve">
<style type="text/css">
	.st0{fill:none;stroke:#7C8990;stroke-width:3.9877;stroke-miterlimit:10;}
	.st1{fill:#7C8990;stroke:#7C8990;stroke-width:4;stroke-miterlimit:10;}
</style>
<g id="XMLID_3_">
	<path id="XMLID_1_" class="st0" d="M16.5 4.7H6.1c-1.4 0-2.6 1.1-2.6 2.6v36.8c0 1.4 1.1 2.5 2.5 2.5h36.8c1.4 0 2.6-1.2 2.6-2.6 V33.6"/>
	<polygon id="XMLID_2_" class="st1" points="11.7,40.1 18.8,35.4 18.8,19.7 22,24.2 22,7.7 25.8,11.3 34,5 45.4,5 42.5,10 42.9,15.5 35,19.7 35,25.7 33.2,27.3 29.5,31 34.5,32 28.8,34.7 18.8,35.2"/>
</g>
</svg>
